<?xml version="1.0" standalone="no"?>
<!DOCTYPE svg PUBLIC "-//W3C//DTD SVG 20010904//EN"
 "http://www.w3.org/TR/2001/REC-SVG-20010904/DTD/svg10.dtd">
<svg version="1.0" xmlns="http://www.w3.org/2000/svg"
 width="360.000000pt" height="360.000000pt" viewBox="0 0 360.000000 360.000000"
 preserveAspectRatio="xMidYMid meet">
<metadata>
Created by potrace 1.11, written by Peter Selinger 2001-2013
</metadata>
<g transform="translate(0.000000,360.000000) scale(0.100000,-0.100000)"
fill="#000000" stroke="none">
<path d="M1088 2303 c-38 -82 -89 -188 -113 -238 -23 -49 -70 -146 -102 -215
-281 -586 -253 -513 -253 -646 l0 -114 660 0 660 0 0 114 0 114 -69 143 c-37
79 -94 198 -126 264 -31 66 -74 156 -95 200 -21 44 -75 157 -120 250 -45 94
-93 194 -106 223 l-25 52 -120 0 -120 0 -71 -147z m391 -665 c83 -174 151
-318 151 -320 0 -3 -760 -1 -783 1 -9 1 2 26 88 206 69 143 142 296 243 508
l56 118 47 -98 c25 -54 114 -241 198 -415z"/>
<path d="M2496 2213 c-103 -131 -192 -245 -199 -253 -7 -8 -61 -78 -122 -155
l-110 -140 -5 -85 c-3 -47 -4 -95 -2 -107 l3 -22 277 0 c152 0 294 0 315 -1
l37 0 0 -180 0 -180 120 0 120 0 0 180 0 180 43 1 c23 1 59 1 80 1 l37 -1 0
102 0 103 -77 0 -78 -1 -3 398 -2 397 -124 0 -124 0 -186 -237z m201 -292 c0
-183 -3 -261 -11 -263 -19 -6 -396 -3 -399 4 -2 5 401 518 407 518 2 0 3 -117
3 -259z"/>
</g>
</svg>
